Coordinates
version=1
nRows=16
nColumns=63
inDegrees=yes

Units are S.I. units (second, meters, Newtons, ...)
If the header above contains a line with 'inDegrees', this indicates whether rotational values are in degrees (yes) or radians (no).

endheader
time	pelvis_tilt	pelvis_list	pelvis_rotation	pelvis_tx	pelvis_ty	pelvis_tz	hip_flexion_r	hip_adduction_r	hip_rotation_r	knee_angle_r	knee_angle_r_beta	ankle_angle_r	subtalar_angle_r	mtp_angle_r	hip_flexion_l	hip_adduction_l	hip_rotation_l	knee_angle_l	knee_angle_l_beta	ankle_angle_l	subtalar_angle_l	mtp_angle_l	L5_S1_Flex_Ext	L5_S1_Lat_Bending	L5_S1_axial_rotation	L4_L5_Flex_Ext	L4_L5_Lat_Bending	L4_L5_axial_rotation	L3_L4_Flex_Ext	L3_L4_Lat_Bending	L3_L4_axial_rotation	L2_L3_Flex_Ext	L2_L3_Lat_Bending	L2_L3_axial_rotation	L1_L2_Flex_Ext	L1_L2_Lat_Bending	L1_L2_axial_rotation	L1_T12_Flex_Ext	L1_T12_Lat_Bending	L1_T12_axial_rotation	Abs_r3	Abs_r2	Abs_r1	Abs_t1	Abs_t2	neck_flexion	neck_bending	neck_rotation	arm_flex_r	arm_add_r	arm_rot_r	elbow_flex_r	pro_sup_r	wrist_flex_r	wrist_dev_r	arm_flex_l	arm_add_l	arm_rot_l	elbow_flex_l	pro_sup_l	wrist_flex_l	wrist_dev_l
1.616667	4.040989	-4.333909	95.568607	0.205905	0.805584	0.627949	10.089833	-0.175732	-7.976540	10.854338	0.189444	23.635371	8.729700	0.000000	14.058452	-2.687677	-7.816571	14.196903	0.247783	29.699698	9.027251	0.000000	0.244829	0.349020	-0.036245	0.454672	0.464197	-0.038510	0.402230	0.848607	-0.038510	0.279815	0.848607	-0.031714	0.227348	0.711722	-0.029449	0.139895	0.540632	-0.027184	1.748789	3.948184	-0.201582	0.000000	0.000000	27.678131	3.113227	0.702337	15.368457	-0.494311	89.095326	33.120800	47.554177	-1.166687	3.541543	8.391504	-3.624822	50.952725	47.471021	80.643043	2.005319	9.814474
1.633333	4.036479	-4.341658	95.536397	0.206119	0.805450	0.628020	10.100233	-0.158105	-7.905447	10.850397	0.189375	23.631982	8.599626	0.000000	14.072930	-2.707794	-7.923506	14.278256	0.249203	29.803339	9.199976	0.000000	0.245207	0.345424	-0.025294	0.455375	0.459414	-0.026875	0.402851	0.839864	-0.026875	0.280247	0.839864	-0.022132	0.227700	0.704389	-0.020552	0.140111	0.535062	-0.018971	1.751491	3.907506	-0.140679	0.000000	0.000000	27.707055	3.166913	0.553498	15.323570	-0.493428	88.997887	33.216829	46.781389	-1.271998	3.591565	8.362834	-3.678059	50.884663	47.553482	80.820650	2.134852	9.786761
1.650000	4.028807	-4.350510	95.542103	0.206271	0.805350	0.628093	10.109575	-0.152858	-7.902260	10.858530	0.189517	23.611956	8.474494	0.000000	14.096600	-2.716215	-8.015520	14.329176	0.250091	29.961614	9.423892	0.000000	0.245344	0.341599	-0.028073	0.455628	0.454327	-0.029827	0.403075	0.830565	-0.029827	0.280403	0.830565	-0.024564	0.227826	0.696589	-0.022809	0.140189	0.529137	-0.021055	1.752467	3.864240	-0.156133	0.000000	0.000000	27.726342	3.226394	0.393746	15.279748	-0.524435	88.899619	33.397599	45.539817	-1.501420	3.532540	8.331521	-3.748057	50.830531	47.650710	80.932552	2.204555	9.764686
1.666667	4.025700	-4.353593	95.613176	0.206307	0.805305	0.628159	10.108320	-0.152792	-7.950359	10.874774	0.189801	23.560450	8.293474	0.000000	14.121593	-2.708232	-8.011680	14.342822	0.250329	30.140219	9.621558	0.000000	0.244981	0.339209	-0.048010	0.454955	0.451148	-0.051011	0.402480	0.824752	-0.051011	0.279989	0.824752	-0.042009	0.227490	0.691714	-0.039008	0.139982	0.525434	-0.036008	1.749877	3.837196	-0.267017	0.000000	0.000000	27.720405	3.257185	0.256983	15.222018	-0.583464	88.751770	33.634353	43.993774	-1.848000	3.402772	8.316586	-3.826885	50.891572	47.727763	80.845778	2.088077	9.652574
1.683333	4.015652	-4.352741	95.683123	0.206344	0.805316	0.628227	10.119777	-0.170494	-8.087345	10.928223	0.190733	23.528478	8.234301	0.000000	14.152535	-2.708361	-8.105777	14.355038	0.250543	30.345344	9.961038	0.000000	0.243077	0.335434	-0.066296	0.451417	0.446127	-0.070439	0.399350	0.815575	-0.070439	0.277812	0.815575	-0.058009	0.225721	0.684017	-0.053865	0.138894	0.519588	-0.049722	1.736272	3.794498	-0.368718	0.000000	0.000000	27.700473	3.255384	0.002654	15.142474	-0.659587	88.533896	33.900812	42.260438	-2.253843	3.151281	8.287317	-3.899606	50.894403	47.816134	80.864247	2.009101	9.592492
1.700000	4.014212	-4.342726	95.830890	0.206262	0.805405	0.628321	10.128064	-0.192584	-8.288186	10.996042	0.191917	23.500917	8.153332	0.000000	14.193196	-2.701108	-8.128809	14.353507	0.250516	30.532135	10.310158	0.000000	0.239244	0.333574	-0.098783	0.444300	0.443653	-0.104957	0.393054	0.811052	-0.104957	0.273432	0.811052	-0.086435	0.222162	0.680224	-0.080261	0.136704	0.516706	-0.074087	1.708898	3.773456	-0.549401	0.000000	0.000000	27.650018	3.217984	-0.205861	15.062384	-0.752669	88.321657	34.194594	40.286201	-2.734494	2.832135	8.264112	-3.960495	50.960300	47.866601	80.776934	1.765672	9.425109
1.716667	4.001568	-4.327963	95.988073	0.206159	0.805579	0.628389	10.147535	-0.236464	-8.549974	11.090634	0.193568	23.523954	8.174011	0.000000	14.223371	-2.685973	-8.174226	14.322818	0.249980	30.682371	10.703732	0.000000	0.233963	0.330614	-0.130491	0.434492	0.439717	-0.138647	0.384378	0.803856	-0.138647	0.267396	0.803856	-0.114180	0.217258	0.674189	-0.106024	0.133686	0.512122	-0.097869	1.671173	3.739976	-0.725754	0.000000	0.000000	27.569773	3.114853	-0.465464	14.971539	-0.842119	88.081676	34.467283	38.446330	-3.216314	2.424402	8.228313	-4.008043	50.996599	47.898854	80.755389	1.523357	9.262183
1.733333	3.995150	-4.304141	96.190132	0.205962	0.805839	0.628438	10.171968	-0.276998	-8.774634	11.198466	0.195450	23.563950	8.106750	0.000000	14.248213	-2.659729	-8.104454	14.269562	0.249051	30.768351	11.003934	0.000000	0.226882	0.329488	-0.164157	0.421343	0.438219	-0.174417	0.372745	0.801117	-0.174417	0.259304	0.801117	-0.143638	0.210683	0.671892	-0.133378	0.129641	0.510377	-0.123118	1.620598	3.727235	-0.912994	0.000000	0.000000	27.465202	2.960912	-0.689819	14.843421	-0.944131	87.672867	34.705268	37.093676	-3.637775	2.031677	8.249995	-4.043468	51.261889	47.863792	80.558586	1.077141	8.962390
1.750000	4.000488	-4.276950	96.434268	0.205652	0.806171	0.628441	10.201444	-0.311336	-8.974563	11.308097	0.197364	23.625280	7.983230	0.000000	14.269977	-2.623344	-7.889809	14.196948	0.247783	30.776109	11.167870	0.000000	0.218987	0.331361	-0.204929	0.406681	0.440710	-0.217737	0.359774	0.805672	-0.217737	0.250280	0.805672	-0.179313	0.203351	0.675712	-0.166505	0.125129	0.513279	-0.153697	1.564203	3.748425	-1.139755	0.000000	0.000000	27.334879	2.769442	-0.826368	14.727965	-1.045398	87.312786	34.900692	35.921592	-3.999489	1.646047	8.283812	-4.049149	51.620175	47.760990	80.301583	0.484927	8.551100
1.766667	4.022015	-4.248028	96.708056	0.205236	0.806552	0.628390	10.237998	-0.335111	-9.157528	11.417896	0.199280	23.698368	7.820235	0.000000	14.289161	-2.589705	-7.585474	14.116123	0.246373	30.725280	11.265388	0.000000	0.210334	0.336838	-0.253702	0.390611	0.447995	-0.269558	0.345557	0.818988	-0.269558	0.240390	0.818988	-0.221989	0.195316	0.686880	-0.206133	0.120185	0.521762	-0.190276	1.502393	3.810379	-1.411012	0.000000	0.000000	27.174670	2.548412	-0.853771	14.620336	-1.146140	86.942218	35.060461	34.960889	-4.280559	1.370399	8.314016	-4.015319	52.003980	47.590105	80.045961	-0.182955	8.070946
1.783333	4.062514	-4.220174	96.998667	0.204712	0.806963	0.628287	10.283920	-0.347480	-9.345539	11.531107	0.201256	23.776847	7.651154	0.000000	14.303551	-2.555005	-7.130077	14.025985	0.244800	30.612209	11.202088	0.000000	0.201398	0.346607	-0.309878	0.374017	0.460987	-0.329245	0.330877	0.842740	-0.329245	0.230178	0.842740	-0.271143	0.187018	0.706801	-0.251776	0.115079	0.536894	-0.232408	1.438567	3.920887	-1.723448	0.000000	0.000000	26.979130	2.308826	-0.742223	14.547607	-1.249167	86.688695	35.211251	33.769552	-4.518965	1.190783	8.362994	-3.944679	52.486208	47.335217	79.709069	-0.977975	7.501529
1.800000	4.121510	-4.202765	97.277835	0.204115	0.807375	0.628119	10.347225	-0.344519	-9.513562	11.646351	0.203267	23.841435	7.462702	0.000000	14.314177	-2.530753	-6.605087	13.926126	0.243057	30.460369	11.061953	0.000000	0.193876	0.360340	-0.370137	0.360047	0.479252	-0.393271	0.318518	0.876131	-0.393271	0.221581	0.876131	-0.323870	0.180033	0.734806	-0.300737	0.110781	0.558167	-0.277603	1.384835	4.076240	-2.058593	0.000000	0.000000	26.748384	2.052281	-0.511807	14.488062	-1.354076	86.497227	35.353320	32.308292	-4.701613	1.142401	8.380442	-3.815131	52.895625	46.992403	79.535620	-1.805053	6.886111
1.816667	4.192424	-4.188567	97.507489	0.203497	0.807798	0.627911	10.415676	-0.328175	-9.682593	11.751563	0.205103	23.877339	7.317174	0.000000	14.303766	-2.515661	-6.016397	13.806507	0.240969	30.260144	10.806012	0.000000	0.186092	0.377664	-0.426370	0.345592	0.502293	-0.453018	0.305731	0.918252	-0.453018	0.212685	0.918252	-0.373074	0.172805	0.770133	-0.346426	0.106333	0.585002	-0.319777	1.329240	4.272212	-2.371342	0.000000	0.000000	26.489404	1.791453	-0.133714	14.453744	-1.450195	86.402861	35.436936	30.936050	-4.832692	1.180129	8.422811	-3.643981	53.441257	46.555144	79.189705	-2.786724	6.143457
1.833333	4.279010	-4.169572	97.737867	0.202804	0.808203	0.627691	10.477319	-0.299679	-9.857665	11.851996	0.206856	23.902646	7.155257	0.000000	14.292149	-2.510079	-5.364238	13.709513	0.239276	30.045634	10.504897	0.000000	0.177477	0.397887	-0.479931	0.329593	0.529190	-0.509927	0.291577	0.967423	-0.509927	0.202839	0.967423	-0.419940	0.164805	0.811372	-0.389944	0.101410	0.616328	-0.359948	1.267702	4.500982	-2.669234	0.000000	0.000000	26.230800	1.515921	0.292421	14.350763	-1.579453	86.048523	35.551475	29.337669	-4.963828	1.443468	8.547457	-3.441292	54.272558	46.018177	78.527319	-3.871866	5.276923
1.850000	4.369687	-4.168417	97.886008	0.202140	0.808575	0.627485	10.575025	-0.265238	-10.016787	11.974245	0.208990	23.926446	7.039943	0.000000	14.288861	-2.509843	-4.668499	13.618433	0.237686	29.804302	10.063816	0.000000	0.170895	0.419876	-0.522437	0.317369	0.558435	-0.555089	0.280763	1.020886	-0.555089	0.195316	1.020886	-0.457132	0.158693	0.856211	-0.424480	0.097649	0.650388	-0.391828	1.220686	4.749718	-2.905637	0.000000	0.000000	25.963691	1.256138	0.820901	14.282077	-1.688964	85.881736	35.594889	27.718119	-4.995857	1.744880	8.692512	-3.206113	55.199708	45.408253	77.658610	-5.056066	4.340451
1.866667	4.456613	-4.174156	97.954906	0.201546	0.808952	0.627271	10.660965	-0.215017	-10.091699	12.044299	0.210213	23.906778	6.888061	0.000000	14.265060	-2.520376	-4.050639	13.495745	0.235545	29.529127	9.638710	0.000000	0.164756	0.441867	-0.556449	0.305968	0.587683	-0.591227	0.270678	1.074355	-0.591227	0.188300	1.074355	-0.486893	0.152992	0.901055	-0.452115	0.094142	0.684452	-0.417337	1.176836	4.998488	-3.094801	0.000000	0.000000	25.692149	1.043396	1.453751	14.284953	-1.743898	86.122854	35.508800	26.173718	-4.933698	1.895157	8.821935	-2.960613	56.088770	44.779192	76.846705	-6.256400	3.362159
